<svg width="332" height="79" viewBox="0 0 332 79" fill="none" xmlns="http://www.w3.org/2000/svg">
<path d="M44.112 77V74.312C48.0373 74.312 50.512 73.8 51.536 72.776L44.368 53.192H19.792L13.136 72.008C13.9893 73.544 16.6347 74.312 21.072 74.312V77H0.0799999V74.312C4.77333 74.312 7.46133 73.416 8.144 71.624L32.976 2.12H43.344L68.432 71.624C69.0293 73.416 71.76 74.312 76.624 74.312V77H44.112ZM31.952 19.144L21.328 48.968H42.832L31.952 19.144ZM69.914 2.12H136.09V14.536H133.402C133.402 10.44 131.909 7.752 128.922 6.472H111.13V71.752C111.898 73.4587 114.586 74.312 119.194 74.312V77H86.81V74.312C91.418 74.312 94.106 73.4587 94.874 71.752V6.472H77.082C74.0953 7.752 72.602 10.44 72.602 14.536H69.914V2.12ZM142.358 77V74.312C146.966 74.312 149.654 73.4587 150.422 71.752V7.368C149.654 5.66133 146.966 4.808 142.358 4.808V2.12H174.742V4.808C170.134 4.808 167.446 5.66133 166.678 7.368V72.648H193.302C195.435 71.7093 197.355 69.0213 199.062 64.584H201.622L198.55 77H142.358ZM244.737 77V74.312C248.662 74.312 251.137 73.8 252.161 72.776L244.993 53.192H220.417L213.761 72.008C214.614 73.544 217.26 74.312 221.697 74.312V77H200.705V74.312C205.398 74.312 208.086 73.416 208.769 71.624L233.601 2.12H243.969L269.057 71.624C269.654 73.416 272.385 74.312 277.249 74.312V77H244.737ZM232.577 19.144L221.953 48.968H243.457L232.577 19.144ZM306.357 78.28C302.176 78.28 297.909 77.64 293.557 76.36C289.205 75.08 286.944 74.44 286.773 74.44C286.261 74.44 285.664 74.696 284.981 75.208C284.298 75.72 283.957 76.3173 283.957 77H281.013V56.776H283.829C284.768 61.8107 287.584 65.9493 292.277 69.192C296.97 72.3493 301.408 73.928 305.589 73.928C309.856 73.928 313.269 72.8187 315.829 70.6C318.474 68.296 319.797 65.3093 319.797 61.64C319.797 60.36 319.37 59.1227 318.517 57.928C317.749 56.648 316.469 55.368 314.677 54.088C312.97 52.7227 311.434 51.6133 310.069 50.76C308.704 49.8213 306.698 48.584 304.053 47.048C301.493 45.512 299.658 44.4027 298.549 43.72C286.944 36.552 281.141 28.872 281.141 20.68C281.141 15.6453 283.445 11.08 288.053 6.98399C292.661 2.888 297.824 0.839996 303.541 0.839996C306.101 0.839996 309.216 1.48 312.885 2.75999C316.554 4.04 318.602 4.68 319.029 4.68C320.053 4.68 320.565 3.82667 320.565 2.12H323.509L324.789 21.448H321.973C321.461 17.9493 319.157 14.3653 315.061 10.696C310.965 7.02666 307.168 5.19199 303.669 5.19199C299.829 5.19199 296.928 6.42933 294.965 8.904C293.002 11.2933 292.021 13.8533 292.021 16.584C292.021 17.6933 292.405 18.8027 293.173 19.912C293.941 20.936 295.178 22.088 296.885 23.368C298.592 24.648 300.085 25.7147 301.365 26.568C302.645 27.336 304.608 28.488 307.253 30.024C309.898 31.56 311.733 32.6267 312.757 33.224C318.645 36.808 323.253 40.52 326.581 44.36C329.909 48.2 331.573 52.7653 331.573 58.056C331.573 64.3707 329.013 69.32 323.893 72.904C318.773 76.488 312.928 78.28 306.357 78.28Z" fill="white"/>
</svg>
